<?xml version="1.0" encoding="UTF-8"?>
<!-- Uploaded to: SVG Repo, www.svgrepo.com, Generator: SVG Repo Mixer Tools -->
<svg fill="#7ed957" width="50px" height="50px" version="1.1" viewBox="144 144 512 512" xmlns="http://www.w3.org/2000/svg">
 <g stroke-width="10">
  <path d="m516.46 388.37c2.0781 0.50781 4.2656-0.19922 5.6523-1.8281 1.3867-1.6328 1.7344-3.9062 0.89844-5.875l-12.328-29.145v-0.003906c6.5977-9.6484 10.168-21.047 10.254-32.738 0.11719-9.1602-2.1641-18.195-6.625-26.203 3.7656-8.8945 5.707-18.453 5.707-28.113 0-51.562-54.621-91.953-124.35-91.953-69.727 0-124.36 40.391-124.36 91.953 0 15.742 5.0977 31.32 14.762 45.105l-7.7539 44.812h-0.003906c-0.33984 1.9922 0.41016 4.0156 1.9648 5.3047 1.5547 1.2891 3.6758 1.6562 5.5742 0.95312l42.402-15.98h-0.003906c5.6914 2.707 11.621 4.8711 17.715 6.4688 15.656 22.633 46.926 36.566 82.312 36.566 14.867 0 33.781-1.0312 49.82-8.668zm-218.86-79.191c-0.003906-0.023437-0.003906-0.046875 0-0.070312v-0.80859-0.31641 0.003906c-0.003906-0.066406-0.003906-0.13281 0-0.19531v-0.35547-0.19531c0-0.070312 0-0.22656-0.070312-0.33594-0.015626-0.082032-0.035157-0.16016-0.058594-0.23828l-0.089844-0.28516c-0.023438-0.082031-0.058594-0.16406-0.097656-0.24609 0-0.089843-0.070313-0.17578-0.10938-0.26562h0.003906c-0.03125-0.074219-0.066406-0.14453-0.10938-0.21484l-0.14844-0.28516-0.11719-0.1875c-0.0625-0.097657-0.125-0.19531-0.19922-0.28516-9.1133-12.309-13.934-26.281-13.934-40.344 0-45.266 49.652-80.641 113.04-80.641s113.03 35.426 113.03 80.688c0 45.266-49.652 80.688-113.03 80.688-19.602 0-44.633-1.3281-64.492-11.633h-0.089844l-0.35547-0.15625-0.17578-0.078125-0.33594-0.10938-0.20703-0.058594-0.32422-0.078125h-2.1328l-0.33594 0.070313-0.19531 0.050781-0.35547 0.11719h-0.097656l-35.426 13.363zm66.469 45.473v-0.003907c10.484 1.2773 21.043 1.8672 31.605 1.7734 49.789 0 91.867-20.605 111.86-51.168 1.418 4.3594 2.1289 8.9219 2.0938 13.508-0.125 10.387-3.6055 20.457-9.918 28.703-0.027343 0.035156-0.054687 0.070312-0.078125 0.10937l-0.17578 0.27734-0.13672 0.22656c0 0.078125-0.089844 0.15625-0.12891 0.24609-0.039062 0.089844-0.089844 0.17578-0.12891 0.27734l-0.089844 0.20703-0.10938 0.31641-0.058594 0.20703c0 0.10938-0.050781 0.20703-0.078125 0.31641-0.03125 0.10938 0 0.15625 0 0.22656 0 0.070312 0 0.19531-0.050781 0.29688-0.050781 0.097656 0 0.17578 0 0.26562l0.003906-0.007813c-0.007812 0.085938-0.007812 0.17578 0 0.26562-0.011719 0.097656-0.011719 0.19531 0 0.29297-0.007812 0.082031-0.007812 0.16406 0 0.24609v0.30469 0.25391 0.26563c0 0.089843 0.050781 0.19531 0.078125 0.29687 0.015625 0.078126 0.039063 0.15234 0.066406 0.22656l0.11719 0.33594 0.050781 0.11719 9.1523 21.648-29.344-7.1523h-0.078125l-0.32422-0.058594h-0.46484c-0.12109-0.011719-0.24609-0.011719-0.37109 0h-0.078125c-0.91797-0.011719-1.8242 0.20703-2.6406 0.62891-14.258 7.3008-32.371 8.2852-46.562 8.2852-25.906 0-49.18-8.0977-64.215-21.738z"/>
  <path d="m397.39 276.76c15.824 0 15.852-24.602 0-24.602s-15.863 24.602 0 24.602z"/>
  <path d="m344.49 276.76c15.832 0 15.852-24.602 0-24.602-15.855 0-15.855 24.602 0 24.602z"/>
  <path d="m450.28 276.76c15.832 0 15.852-24.602 0-24.602s-15.844 24.602 0 24.602z"/>
  <path d="m290.26 502.57c18.27-8.668 31.586-25.199 36.16-44.898s-0.089844-40.406-12.664-56.242c-12.578-15.832-31.695-25.062-51.918-25.062s-39.34 9.2305-51.918 25.062c-12.578 15.836-17.242 36.543-12.664 56.242 4.5742 19.699 17.891 36.23 36.16 44.898-16.402 5.8555-30.594 16.637-40.633 30.867-10.039 14.23-15.438 31.215-15.457 48.633v39.805-0.003906c0 3.125 2.5352 5.6602 5.6602 5.6602s5.6562-2.5352 5.6562-5.6602v-39.832c0-40.285 32.777-73.062 73.516-73.062 19.363 0.035157 37.922 7.7422 51.609 21.441 13.691 13.695 21.391 32.258 21.414 51.621v39.805c0 3.125 2.5312 5.6562 5.6562 5.6562s5.6602-2.5312 5.6602-5.6562v-39.805c-0.023438-17.43-5.4375-34.43-15.508-48.66-10.07-14.227-24.297-24.988-40.73-30.809zm-83.363-59.906c0-14.582 5.793-28.566 16.105-38.879s24.297-16.105 38.879-16.105c14.586 0 28.57 5.793 38.883 16.105s16.105 24.297 16.105 38.879c0 14.586-5.793 28.57-16.105 38.883s-24.297 16.105-38.883 16.105c-14.578-0.015625-28.555-5.8164-38.863-16.125-10.309-10.309-16.105-24.285-16.121-38.863z"/>
  <path d="m580.07 524.55c14.102-7.5898 24.062-21.094 27.156-36.801 3.0898-15.711-1.0078-31.98-11.18-44.348s-25.34-19.535-41.352-19.535c-16.012 0-31.184 7.168-41.355 19.535-10.168 12.367-14.27 28.637-11.176 44.348 3.0898 15.707 13.055 29.211 27.152 36.801-12.562 5.0469-23.324 13.734-30.914 24.945-7.5859 11.211-11.648 24.434-11.664 37.973v31.43-0.003906c0 3.125 2.5352 5.6602 5.6562 5.6602 3.125 0 5.6602-2.5352 5.6602-5.6602v-31.469c0.26562-20.066 11.125-38.5 28.551-48.461 17.426-9.957 38.82-9.957 56.246 0 17.426 9.9609 28.285 28.395 28.551 48.461v31.43c0 3.125 2.5312 5.6602 5.6562 5.6602s5.6602-2.5352 5.6602-5.6602v-31.43c-0.015625-13.539-4.0859-26.766-11.688-37.973s-18.383-19.883-30.961-24.902zm-67.562-47.152v-0.003906c0-11.195 4.4492-21.938 12.371-29.855 7.918-7.918 18.66-12.367 29.855-12.367 11.199 0 21.941 4.4531 29.859 12.371 7.918 7.9219 12.363 18.66 12.363 29.859-0.003906 11.199-4.4531 21.938-12.375 29.855-7.918 7.918-18.66 12.363-29.859 12.363-11.191-0.015625-21.926-4.4688-29.84-12.383-7.9141-7.918-12.363-18.648-12.375-29.844z"/>
 </g>
</svg>